<?xml version="1.0" encoding="UTF-8"?>
<svg width="32px" height="32px" viewBox="0 0 32 32" version="1.1" xmlns="http://www.w3.org/2000/svg" xmlns:xlink="http://www.w3.org/1999/xlink">
    <title>icon_jg_dangan</title>
    <g id="配送站点端">
        <g id="监管-列表" transform="translate(-539.000000, -577.000000)">
            <g id="编组-12" transform="translate(30.000000, 386.000000)">
                <g id="编组-8" transform="translate(30.000000, 172.000000)">
                    <g id="编组-7备份-2" transform="translate(432.000000, 0.000000)">
                        <g id="编组-34" transform="translate(47.000000, 19.000000)">
                            <g id="名称-档案设置" transform="translate(4.480000, 0.623282)">
                                <rect id="矩形" x="1.2" y="1.85809034" width="7.68433645" height="27.6617697" rx="2.8481239"></rect>
                                <rect id="矩形" x="1.44061949" y="22.8465394" width="7.20309747" height="2.4"></rect>
                                <ellipse id="椭圆形" cx="5.04216823" cy="7.81565454" rx="1.44061949" ry="1.43151284"></ellipse>
                                <path d="M15.7970179,1.85284185 L20.1893497,1.85758422 C20.6437685,1.85807555 21.0551066,2.04244875 21.3529636,2.34030381 C21.6508206,2.63815886 21.8351964,3.04949578 21.8356907,3.50391452 L21.8356907,3.50391452 L21.8621989,27.875193 C21.8626939,28.3303095 21.6786696,28.7425409 21.3807424,29.0411169 C21.0828153,29.3396929 20.6709852,29.5246135 20.2184694,29.5251085 L20.2184694,29.5251085 L15.8261376,29.5203661 C15.3717188,29.5198748 14.9603807,29.3355016 14.6625237,29.0376465 C14.3646668,28.7397915 14.1802909,28.3284546 14.1797966,27.8740358 L14.1797966,27.8740358 L14.1532884,3.50275739 C14.1527934,3.04764081 14.3368177,2.63540944 14.6347449,2.33683345 C14.9326721,2.03825746 15.3445022,1.85333686 15.7970179,1.85284185 L15.7970179,1.85284185 Z" id="矩形备份-7" transform="translate(18.007744, 15.688975) rotate(-10.000000) translate(-18.007744, -15.688975) "></path>
                                <polygon id="矩形备份-5" transform="translate(20.007744, 24.042440) rotate(-10.000000) translate(-20.007744, -24.042440) " points="16.4057134 22.8424401 23.6074379 22.8511101 23.6097739 25.2424401 16.4080494 25.2337701"></polygon>
                                <ellipse id="椭圆形备份-3" transform="translate(16.007744, 6.815655) rotate(-10.000000) translate(-16.007744, -6.815655) " cx="16.0077437" cy="6.81565454" rx="1.44034575" ry="1.43178831"></ellipse>
                            </g>
                        </g>
                    </g>
                </g>
            </g>
        </g>
    </g>
</svg>