<svg width="32px" height="32px" xmlns="http://www.w3.org/2000/svg">
    <path d="M16.2224805,31.0343106 C14.2257517,31.0343106 12.2841811,30.6408483 10.4566043,29.8686328 C8.69154012,29.1221577 7.11033682,28.0557648 5.74976653,26.6951945 C4.38919624,25.3346242 3.32280332,23.7534209 2.57632827,21.9883568 C1.8041127,20.1607799 1.41065048,18.2228866 1.41065048,16.2224805 C1.41065048,14.2220745 1.8041127,12.2841811 2.57632827,10.4566043 C3.32280332,8.69154012 4.38919624,7.11033682 5.74976653,5.74976653 C7.11033682,4.38919624 8.69154012,3.32280332 10.4566043,2.57632827 C12.2841811,1.8041127 14.2220745,1.41065048 16.2224805,1.41065048 C18.2228866,1.41065048 20.1607799,1.8041127 21.9883568,2.57632827 C23.7534209,3.32280332 25.3346242,4.38919624 26.6951945,5.74976653 C28.0557648,7.11033682 29.1221577,8.69154012 29.8686328,10.4566043 C30.6408483,12.2841811 31.0343106,14.2220745 31.0343106,16.2224805 C31.0343106,18.2228866 30.6408483,20.1644571 29.8686328,21.992034 C29.1221577,23.7570981 28.0557648,25.3383014 26.6951945,26.6988717 C25.3346242,28.059442 23.7534209,29.1258349 21.9883568,29.87231 C20.1607799,30.6445256 18.2228866,31.0343106 16.2224805,31.0343106 Z M16.2224805,4.23195144 C13.0186338,4.23195144 10.009496,5.4780885 7.74379226,7.74379226 C5.4780885,10.009496 4.23195144,13.0186338 4.23195144,16.2224805 C4.23195144,19.4263272 5.4780885,22.435465 7.74379226,24.7011688 C10.009496,26.9668725 13.0186338,28.2130096 16.2224805,28.2130096 C19.4263272,28.2130096 22.435465,26.9668725 24.7011688,24.7011688 C26.9668725,22.435465 28.2130096,19.4263272 28.2130096,16.2224805 C28.2130096,13.0186338 26.9668725,10.009496 24.7011688,7.74379226 C22.435465,5.48162867 19.4263272,4.23195144 16.2224805,4.23195144 Z"></path>
    <path d="M16.2224805,9.87455336 C19.7219788,9.87455336 22.5704077,12.7229822 22.5704077,16.2224805 C22.5704077,19.7219788 19.7219788,22.5704077 16.2224805,22.5704077 C12.7229822,22.5704077 9.87455336,19.7219788 9.87455336,16.2224805 C9.87455336,12.7229822 12.7229822,9.87455336 16.2224805,9.87455336 Z M16.2224805,12.6958543 C14.2788633,12.6958543 12.6958543,14.2788633 12.6958543,16.2224805 C12.6958543,18.1660977 14.2788633,19.7491067 16.2224805,19.7491067 C18.1660977,19.7491067 19.7491067,18.1660977 19.7491067,16.2224805 C19.7491067,14.2788633 18.1660977,12.6958543 16.2224805,12.6958543 Z"></path>
    <path d="M16.2224805,26.8023591 C17.0018214,26.8023591 17.633131,27.2917474 17.633131,27.8958888 L17.633131,27.8958888 L17.633131,30.9064704 C17.633131,31.5106117 17.0018214,32 16.2224805,32 C15.4431397,32 14.81183,31.5106117 14.81183,30.9064704 L14.81183,30.9064704 L14.81183,27.8958888 C14.81183,27.2917474 15.4431397,26.8023591 16.2224805,26.8023591 Z M4.10411124,14.81183 C4.70825262,14.81183 5.19764088,15.4431397 5.19764088,16.2224805 C5.19764088,17.0018214 4.70825262,17.633131 4.10411124,17.633131 L4.10411124,17.633131 L1.09352964,17.633131 C0.489388265,17.633131 0,17.0018214 0,16.2224805 C0,15.4431397 0.489388265,14.81183 1.09352964,14.81183 L1.09352964,14.81183 Z M30.9064704,14.81183 C31.5106117,14.81183 32,15.4431397 32,16.2224805 C32,17.0018214 31.5106117,17.633131 30.9064704,17.633131 L30.9064704,17.633131 L27.8958888,17.633131 C27.2917474,17.633131 26.8023591,17.0018214 26.8023591,16.2224805 C26.8023591,15.4431397 27.2917474,14.81183 27.8958888,14.81183 L27.8958888,14.81183 Z M16.2224805,0 C17.0018214,0 17.633131,0.489388265 17.633131,1.09352964 L17.633131,1.09352964 L17.633131,4.10411124 C17.633131,4.70825262 17.0018214,5.19764088 16.2224805,5.19764088 C15.4431397,5.19764088 14.81183,4.70825262 14.81183,4.10411124 L14.81183,4.10411124 L14.81183,1.09352964 C14.81183,0.489388265 15.4431397,0 16.2224805,0 Z"></path>
</svg>