<svg width="32px" height="32px" xmlns="http://www.w3.org/2000/svg">
    <path d="M27.1794474,20.3335477 C25.5769284,20.3634948 24.2175705,21.4236214 23.7107409,22.8910283 C23.6462886,23.0826896 23.4675799,23.2084673 23.2712933,23.2084673 L7.12891796,23.2084673 C5.58206239,23.2084673 4.29594573,21.9447006 4.28129747,20.3634948 C4.26664922,18.7643207 5.53225832,17.4586281 7.09376215,17.4586281 L23.9685502,17.4586281 C25.2136517,17.4586281 26.3884417,16.9585118 27.2790555,16.0511153 C28.1667396,15.1437188 28.6559913,13.9428409 28.6559913,12.6670954 C28.6559913,11.3913498 28.1667396,10.1934666 27.2790555,9.28307539 C26.3913713,8.37567889 25.2136517,7.87556266 23.9685502,7.87556266 L8.72850724,7.87556266 C8.53222064,7.87556266 8.35351195,7.74978493 8.28905963,7.55812362 C7.78223006,6.08772202 6.42580179,5.03059012 4.8203532,5.00064304 C2.75494946,4.96171184 1.01473694,6.69564773 0.999993875,8.80691683 C0.985440435,10.9361542 2.66998959,12.6670954 4.75004159,12.6670954 C6.38185703,12.6670954 7.77051146,11.6009793 8.28612998,10.1126095 C8.35351195,9.92094818 8.52929099,9.79217574 8.72850724,9.79217574 L23.9333944,9.79217574 C25.48025,9.79217574 26.7663666,11.0559425 26.7810149,12.6371483 C26.7956631,14.2363223 25.530054,15.542015 23.9685502,15.542015 L7.09376215,15.542015 C5.8486606,15.542015 4.67387067,16.0421312 3.78325685,16.9495277 C2.89557269,17.8569242 2.40632103,19.0607968 2.40632103,20.3335477 C2.40632103,21.6062986 2.89557269,22.8071764 3.78325685,23.7175676 C4.67094102,24.6249642 5.8486606,25.1250804 7.09376215,25.1250804 L23.2712933,25.1250804 C23.4705096,25.1250804 23.6462886,25.2538528 23.7136706,25.4455141 C24.2292891,26.933884 25.6179435,28 27.249759,28 C29.329811,28 31.0143601,26.2690588 30.9998067,24.1398215 C30.9850636,22.0285524 29.2448511,20.2946165 27.1794474,20.3335477 Z M4.75004159,10.7504823 C3.71587489,10.7504823 2.87506514,9.8910011 2.87506514,8.8338692 C2.87506514,7.7767373 3.71587489,6.91725612 4.75004159,6.91725612 C5.78420828,6.91725612 6.62501804,7.7767373 6.62501804,8.8338692 C6.62501804,9.8910011 5.78420828,10.7504823 4.75004159,10.7504823 Z M27.249759,26.0833869 C26.2155923,26.0833869 25.3747825,25.2239057 25.3747825,24.1667738 C25.3747825,23.1096419 26.2155923,22.2501608 27.249759,22.2501608 C28.2839257,22.2501608 29.1247354,23.1096419 29.1247354,24.1667738 C29.1247354,25.2239057 28.2839257,26.0833869 27.249759,26.0833869 Z"></path>
</svg>