<?xml version="1.0" encoding="UTF-8"?>
<svg width="44px" height="44px" viewBox="0 0 44 44" version="1.1" xmlns="http://www.w3.org/2000/svg" xmlns:xlink="http://www.w3.org/1999/xlink">
    <title>supervise_map_gengduo_nor</title>
    <g id="租车商户端" stroke="none" stroke-width="1">
        <g id="监管-地图" transform="translate(-663.000000, -206.000000)">
            <g id="编组-2备份-2" transform="translate(640.000000, 196.000000)">
                <g id="supervise_map_gengduo_nor" transform="translate(23.000000, 10.000000)">
                    <path d="M24.7741935,4 C28.7648963,4 32,7.23510374 32,11.2258065 L32,24.7741935 C32,28.7648963 28.7648963,32 24.7741935,32 L11.2258065,32 C7.23510374,32 4,28.7648963 4,24.7741935 L4,11.2258065 C4,7.23510374 7.23510374,4 11.2258065,4 L24.7741935,4 Z M24.6,7 L11.4,7 C9.03389586,7 7.10400006,8.8676299 7.00406517,11.2091371 L7,11.4 L7,24.6 C7,26.9661041 8.8676299,28.8959999 11.2091371,28.9959348 L11.4,29 L24.6,29 C26.9661041,29 28.8959999,27.1323701 28.9959348,24.7908629 L29,24.6 L29,11.4 C29,9.03389586 27.1323701,7.10400006 24.7908629,7.00406517 L24.6,7 Z" id="矩形"></path>
                    <path d="M33.7741935,13 C37.7648963,13 41,16.2351037 41,20.2258065 L41,33.7741935 C41,37.7648963 37.7648963,41 33.7741935,41 L20.2258065,41 C16.2351037,41 13,37.7648963 13,33.7741935 L13,20.2258065 C13,16.2351037 16.2351037,13 20.2258065,13 L33.7741935,13 Z M33.6,16 L20.4,16 C18.0338959,16 16.1040001,17.8676299 16.0040652,20.2091371 L16,20.4 L16,33.6 C16,35.9661041 17.8676299,37.8959999 20.2091371,37.9959348 L20.4,38 L33.6,38 C35.9661041,38 37.8959999,36.1323701 37.9959348,33.7908629 L38,33.6 L38,20.4 C38,18.0338959 36.1323701,16.1040001 33.7908629,16.0040652 L33.6,16 Z" id="矩形备份-10"></path>
                </g>
            </g>
        </g>
    </g>
</svg>