<?xml version="1.0" encoding="UTF-8"?>
<svg width="45px" height="45px" viewBox="0 0 45 45" version="1.1" xmlns="http://www.w3.org/2000/svg" xmlns:xlink="http://www.w3.org/1999/xlink">
    <title>supervise_map_quanlan</title>
    <g id="租车商户端" stroke="none" stroke-width="1">
        <g id="监管-地图" transform="translate(-663.000000, -316.000000)">
            <g id="编组-2" transform="translate(640.000000, 306.000000)">
                <g id="supervise_map_quanlan" transform="translate(23.000000, 10.000000)">
                    <g id="地图" transform="translate(8.216509, 6.619011)"></g>
                    <path d="M5.00042187,20.7215317 C5.00042187,19.9690191 5.60479315,19.3592012 6.35040658,19.3592012 C7.09602001,19.3592012 7.70039128,19.9694818 7.70039128,20.7215317 L7.70039128,34.0325242 C7.70039128,34.2833758 7.90200306,34.4866484 8.15040025,34.4866484 C8.22473895,34.486688 8.29790583,34.4681767 8.36323378,34.4328014 L14.8958098,30.8982048 C15.8586656,30.3763708 17.0255771,30.3969746 17.9693031,30.9524726 L28.6233402,37.2140019 C28.7539445,37.2909754 28.9148539,37.296381 29.0503572,37.228347 L38.0502834,32.7159637 C38.2032536,32.6392316 38.3000306,32.481729 38.3000306,32.3094184 L38.3000306,20.7215317 C38.3000306,19.9690191 38.9043597,19.3592012 39.6500153,19.3592012 C40.3956709,19.3592012 41,19.9694818 41,20.7215317 L41,32.3094184 C41,33.5160552 40.3227295,34.6185737 39.2517698,35.1556981 L30.2518858,39.6680815 C29.3040114,40.1438335 28.1785462,40.1061253 27.2648337,39.5680017 L16.6102904,33.3073979 C16.4754984,33.227928 16.3087625,33.2248614 16.1711235,33.2993208 L9.63854745,36.8343801 C9.181581,37.0817215 8.66988112,37.2112884 8.14993619,37.2113095 C6.41026996,37.2113095 5,35.7888638 5,34.032987 L5,20.7215317 L5.00042187,20.7215317 Z M33.3501007,15.1573639 C33.3501007,18.851272 30.2631498,23.2729988 24.1931545,28.6312437 C23.512081,29.2322959 22.4883831,29.2322959 21.8073096,28.6312437 C15.7368502,23.2734615 12.6503633,18.851272 12.6503633,15.1573639 C12.6503633,9.54199926 17.2897967,5 23.000232,5 C28.7106673,5 33.3501007,9.54199926 33.3501007,15.1573218 L33.3501007,15.1573639 Z M15.3503328,15.1573639 C15.3503328,17.7451356 17.8694042,21.4489297 23.000232,26.082469 C28.1310598,21.4489297 30.6501313,17.7451356 30.6501313,15.1573639 C30.6501313,11.0402936 27.23062,7.69235285 23.000232,7.69235285 C18.769844,7.69235285 15.3503328,11.0398309 15.3503328,15.1573218 L15.3503328,15.1573639 Z M23.000232,18.0130248 C21.5090801,18.0130248 20.3002626,16.8076173 20.3002626,15.3206719 C20.3002626,13.8337265 21.5090801,12.6283191 23.000232,12.6283191 C24.491384,12.6283191 25.7002014,13.8337265 25.7002014,15.3206719 C25.7002014,16.8076173 24.491384,18.0130248 23.000232,18.0130248 Z" id="形状"></path>
                </g>
            </g>
        </g>
    </g>
</svg>