<svg width="60px" height="60px" xmlns="http://www.w3.org/2000/svg">
    <title>icon_lukuang</title>
    <defs>
        <circle id="path-1" cx="30" cy="30" r="30"></circle>
    </defs>
    <g id="配送站点端" stroke="none" stroke-width="1" fill="none">
        <g id="监管-地图备份" transform="translate(-60.000000, -1338.000000)">
            <g id="编组-33" transform="translate(0.000000, 712.000000)">
                <g id="编组-25" transform="translate(30.000000, 516.000000)">
                    <g id="编组复制-3备份-8" transform="translate(30.000000, 110.000000)">
                        <g id="icon_lukuang" transform="translate(30.000000, 30.000000) rotate(90.000000) translate(-30.000000, -30.000000) ">
                            <g id="路径-3">
                                <mask id="mask-2" fill="white">
                                    <use xlink:href="#path-1"></use>
                                </mask>
                                <use id="蒙版" fill="#2978FF" xlink:href="#path-1"></use>
                            </g>
                            <g id="红绿灯" transform="translate(21.000000, 11.000000)" fill="#FFFFFF">
                                <path d="M9,0 C13.9497839,0 18,3.98233611 18,8.84916376 L18,29.1508362 C18.000864,34.0176639 13.950648,38 9,38 C4.050216,38 0,34.0176639 0,29.1508362 L0,8.84916376 C0,3.98233611 4.050216,0 9,0 Z M8.99999993,24.8830158 C6.60802103,24.8830158 4.66893899,26.7895997 4.66893899,29.14149 C4.66893899,31.4933804 6.60802103,33.3999642 8.99999993,33.3999642 C11.3919788,33.3999642 13.3310609,31.4933804 13.3310609,29.14149 C13.3310609,26.7895997 11.3919788,24.8830158 8.99999993,24.8830158 Z M8.99999993,14.7415258 C6.60802103,14.7415258 4.66893899,16.6481096 4.66893899,19 C4.66893899,21.3518904 6.60802103,23.2584742 8.99999993,23.2584742 C11.3919788,23.2584742 13.3310609,21.3518904 13.3310609,19 C13.3310609,16.6481096 11.3919788,14.7415258 8.99999993,14.7415258 Z M8.99999993,4.60003577 C6.60802103,4.60003577 4.66893899,6.50661962 4.66893899,8.85850997 C4.66893899,11.2104003 6.60802103,13.1169842 8.99999993,13.1169842 C11.3919788,13.1169842 13.3310609,11.2104003 13.3310609,8.85850997 C13.3310609,6.50661962 11.3919788,4.60003577 8.99999993,4.60003577 Z" id="形状结合"></path>
                            </g>
                        </g>
                    </g>
                </g>
            </g>
        </g>
    </g>
</svg>